# xmcd CD database file
#
# Track frame offsets:
#	150
#	12370
#	26882
#	39712
#	56460
#	76600
#	94012
#	111112
#	126847
#	141157
#	151257
#	168927
#	180402
#	202755
#	220882
#	232430
#	248482
#
# Disc length: 3590 seconds
#
# Revision: 0
# Processed by: cddbd v1.4PL0 Copyright (c) Steve Scherf et al.
# Submitted via: CDex 1.40Beta8
#
DISCID=da0e0411
DTITLE=Outbound - The road of love
DYEAR=1900
DGENRE=Country
TTITLE0=The road of love
TTITLE1=Love will
TTITLE2=I'll make it back to you
TTITLE3=You loved me just the same
TTITLE4=What's going without saying
TTITLE5=Texas red
TTITLE6=In the silence
TTITLE7=This love is true
TTITLE8=Good friend that I know
TTITLE9=The wall
TTITLE10=John Deere tractor
TTITLE11=Between lovin' and needin'
TTITLE12=Were is the faith
TTITLE13=If you are holding me
TTITLE14=We'll cross that bridge
TTITLE15=Calloused hands
TTITLE16=From the depts of my hearts
EXTD=ID3G: 2
EXTT0=
EXTT1=
EXTT2=
EXTT3=
EXTT4=
EXTT5=
EXTT6=
EXTT7=
EXTT8=
EXTT9=
EXTT10=
EXTT11=
EXTT12=
EXTT13=
EXTT14=
EXTT15=
EXTT16=
PLAYORDER=
